<svg xmlns="http://www.w3.org/2000/svg">
  <symbol id="github-mark" viewBox="0 0 24 24">
    <path d="M12 2C6.48 2 2 6.58 2 12.26c0 4.5 2.87 8.32 6.84 9.67.5.1.68-.22.68-.48l-.01-1.69c-2.78.62-3.37-1.37-3.37-1.37-.46-1.2-1.11-1.52-1.11-1.52-.9-.63.07-.62.07-.62 1 .07 1.53 1.06 1.53 1.06.9 1.59 2.36 1.13 2.94.86.09-.66.35-1.13.63-1.39-2.22-.26-4.56-1.15-4.56-5.12 0-1.13.39-2.06 1.03-2.79-.1-.26-.45-1.32.1-2.75 0 0 .84-.27 2.75 1.03A9.2 9.2 0 0 1 12 6.8c.85 0 1.71.12 2.51.35 1.9-1.3 2.74-1.03 2.74-1.03.56 1.43.21 2.49.1 2.75.64.73 1.03 1.66 1.03 2.79 0 3.98-2.34 4.85-4.57 5.11.36.33.68.97.68 1.96l-.01 2.9c0 .26.18.58.69.48 3.96-1.35 6.83-5.17 6.83-9.67C22 6.58 17.52 2 12 2z" />
  </symbol>
</svg>
